<?xml version="1.0" encoding="UTF-8" standalone="yes"?>
<svg width="100%" height="100%" viewBox="0 0 4000 4000" version="1.2" xml:space="preserve" fill-rule="evenodd" stroke-linejoin="round" stroke-miterlimit="2" baseProfile="tiny-ps" xmlns="http://www.w3.org/2000/svg">
  <title>bimi-svg-tiny-12-ps</title>
  <g transform="matrix(1.333333,0,0,1.333333,0,0)">
    <g transform="matrix(1.304463,0,0,1.304463,-460.289048,-527.224234)">
      <path d="M2405.902,846.065C2559.484,1041.55 2651.12,1287.958 2651.12,1555.601C2651.12,2141.989 2211.248,2626.45 1643.751,2696.736L1643.751,2235.529C1958.837,2169.709 2195.814,1890.111 2195.814,1555.601C2195.814,1413.774 2153.215,1281.819 2080.124,1171.843L2405.902,846.065Z" fill="rgb(0,178,234)"/>
    </g>
    <g transform="matrix(1.304463,0,0,1.304463,-460.289048,-527.224234)">
      <path d="M796.786,646.938C991.448,495.756 1235.902,405.703 1501.222,405.703C1768.864,405.703 2015.273,497.339 2210.758,650.921L1884.98,976.699C1775.004,903.608 1643.048,861.009 1501.222,861.009C1361.743,861.009 1231.811,902.21 1122.943,973.094L796.786,646.938Z" fill="rgb(0,178,234)"/>
    </g>
    <g transform="matrix(1.304463,0,0,1.304463,-460.289048,-527.224234)">
      <path d="M1367.776,2697.824C795.897,2631.61 351.324,2145.114 351.324,1555.601C351.324,1285.638 444.556,1037.278 600.551,840.991L925.968,1166.408C850.649,1277.46 806.63,1411.431 806.63,1555.601C806.63,1893.318 1048.172,2175.065 1367.776,2237.362L1367.776,2697.824Z" fill="rgb(0,178,234)"/>
    </g>
  </g>
</svg>